<svg xmlns="http://www.w3.org/2000/svg" viewBox="0 0 116.3 133.71"><title>Asset 2</title><path d="M13.25,21.34V13.66h25v7.68H30V47.26h-8.5V21.34Z"/><path d="M64.52,21.34H52.08v4.75H63.51v7.63H52.08v5.9H64.95v7.63H43.54V13.66h21Z"/><path d="M81.22,30.75V47.26H72.34V13.51h3.12l17,16.61V13.66h8.78V47.31H98.16Z"/><path d="M13.25,62.73V55h25v7.68H30V88.65h-8.5V62.73Z"/><path d="M64.52,62.73H52.08v4.75H63.51v7.63H52.08V81H64.95v7.63H43.54V55h21Z"/><path d="M81.22,72.14V88.65H72.34V54.9h3.12l17,16.61V55h8.78V88.7H98.16Z"/><path d="M14.95,101.77V96.49H32.11v5.28H26.47v17.82H20.63V101.77Z"/><path d="M50.2,101.77H41.65V105H49.5v5.25H41.65v4.06h8.85v5.25H35.77V96.49H50.2Z"/><path d="M66,96.22c4.79,0,10,2.61,10.86,8.78H71.09a4.85,4.85,0,0,0-5-3.4c-3.47,0-5.74,2.61-5.74,6.44,0,3.4,2.24,6.37,5.74,6.4a4.92,4.92,0,0,0,5.15-3.73H77c-.86,6.53-6,9.11-11,9.11-5.88,0-11.82-3.93-11.85-11.78S60.16,96.22,66,96.22Z"/><path d="M100.75,119.59h-6v-9.27H87.58v9.27h-6V96.49h6v8.38h7.13V96.49h6Z"/><rect x="1" y="1" width="114.3" height="131.71" fill="none" stroke="#000" stroke-miterlimit="10" stroke-width="2"/></svg>
