<svg xmlns="http://www.w3.org/2000/svg" viewBox="0 0 116.3 103">
    <title>Asset 2</title>
    <path d="M13.25,21.34V13.66h25v7.68H30V47.26h-8.5V21.34Z"/>
    <path d="M64.52,21.34H52.08v4.75H63.51v7.63H52.08v5.9H64.95v7.63H43.54V13.66h21Z"/>
    <path d="M81.22,30.75V47.26H72.34V13.51h3.12l17,16.61V13.66h8.78V47.31H98.16Z"/>
    <path d="M13.25,62.73V55h25v7.68H30V88.65h-8.5V62.73Z"/>
    <path d="M64.52,62.73H52.08v4.75H63.51v7.63H52.08V81H64.95v7.63H43.54V55h21Z"/>
    <path d="M81.22,72.14V88.65H72.34V54.9h3.12l17,16.61V55h8.78V88.7H98.16Z"/>
    <rect x="1" y="1" width="114.3" height="101" fill="none" stroke="#000" stroke-miterlimit="10" stroke-width="2"/>
</svg>
